<svg width="128" height="128" viewBox="0 0 128 128" fill="none" xmlns="http://www.w3.org/2000/svg">
<rect width="128" height="128" rx="24" fill="#E6FCF5"/>
<path fill-rule="evenodd" clip-rule="evenodd" d="M98.9012 113.807L30.7523 113.998C30.9193 93.0343 17.5302 80.1704 17.0488 69.9501C16.1697 51.2982 27.2699 44.9871 41.4007 37.2924C36.4645 48.6714 39.3869 61.6197 42.1669 73.9043C44.6473 84.884 47 95.2899 42.997 102.72C42.8938 102.912 42.8251 103.114 42.7858 103.328C40.9783 104.863 39.0382 106.45 36.9409 108.092C36.1846 108.677 35.9734 109.841 36.4596 110.685C36.9508 111.529 37.9626 111.737 38.714 111.146C45.276 106.022 50.3988 101.376 54.4755 97.0505C58.1297 99.8573 61.224 98.4679 64.6131 96.9492C67.9382 95.453 71.5876 93.8162 76.4108 97.118C80.5562 99.9585 84.0729 98.1811 87.737 96.3249C91.4993 94.4181 95.4483 92.4212 100.35 96.6736C101.308 97.5061 104.053 98.0517 106.932 97.8604C107.973 97.7986 109.044 97.6411 110.07 97.3711L110.674 99.3173C113.508 108.936 106.829 113.812 98.9012 113.807ZM56.1356 95.2393C57.2849 93.9568 58.3409 92.6969 59.3134 91.4594C61.5237 91.6731 63.5423 90.7675 65.6789 89.8057C69.009 88.3151 72.6583 86.6727 77.4766 89.9801C81.6269 92.8206 85.1388 91.0375 88.8028 89.187C92.5701 87.2745 96.519 85.2777 101.421 89.5357C102.374 90.3626 105.124 90.9082 108.002 90.7225L109.343 95.0312C108.543 95.2168 107.708 95.3293 106.892 95.3799C104.471 95.5374 102.31 95.2112 101.696 94.6768C95.8068 89.5582 91.2537 91.8644 86.9168 94.0581C83.7832 95.6443 80.7723 97.1686 77.565 94.9693C71.8528 91.06 67.6828 92.9331 63.8812 94.6374C61.2191 95.8299 58.7731 96.9323 56.1356 95.2393ZM61.2732 88.8607C67.5699 80.086 69.9913 72.3294 72.6436 63.8303C75.6397 54.2287 78.9452 43.6428 88.9453 29.3558L107.241 88.2701C105.124 88.3264 103.317 88.017 102.762 87.5333C96.8726 82.4203 92.3245 84.7209 87.9875 86.9145C84.849 88.5064 81.8431 90.0307 78.6358 87.8258C72.9235 83.9165 68.7487 85.7896 64.9471 87.4995C63.6848 88.0676 62.4618 88.6132 61.2732 88.8607ZM46.8821 34.3056L63.3901 25.3171C57.1867 36.5274 59.1906 45.9602 61.337 56.0737C62.9038 63.4253 64.5492 71.1707 62.7417 80.1985C59.6278 85.9133 55.1385 91.9094 47.8399 98.7998C49.441 91.1107 47.4224 82.1784 45.3153 72.8637C42.3094 59.5779 39.1217 45.454 46.8821 34.3056ZM69.731 21.8691L84.1761 14L87.6879 25.3115C76.3519 40.9991 72.7958 52.3838 69.5836 62.6772C68.6848 65.5627 67.8105 68.3583 66.7889 71.1369C66.6956 65.3715 65.5807 60.1348 64.5001 55.0724C62.2162 44.3122 60.1091 34.39 69.731 21.8691Z" fill="#007046"/>
<path fill-rule="evenodd" clip-rule="evenodd" d="M30.8147 114L30.7509 113.854C30.7509 113.73 30.7509 113.612 30.7509 113.494C32.5878 112.481 34.4149 111.339 36.2371 110.085C36.2764 110.293 36.3501 110.496 36.4631 110.687C36.9493 111.531 37.9611 111.733 38.7126 111.148C45.2745 106.024 50.3974 101.378 54.474 97.0468C58.1283 99.8592 61.2226 98.4699 64.6116 96.9455C67.9368 95.455 71.5861 93.8181 76.4094 97.1199C80.5597 99.9605 84.0715 98.183 87.7356 96.3268C91.4979 94.42 95.4517 92.4176 100.349 96.6756C101.306 97.508 104.057 98.048 106.93 97.8624C107.971 97.7949 109.047 97.6374 110.069 97.373L110.673 99.3192C113.512 108.938 106.827 113.814 98.8997 113.809L30.8147 114ZM61.3454 88.7558L62.3719 88.5589C62.0035 88.6827 61.6401 88.7839 61.2717 88.8571L61.3454 88.7558ZM105.594 88.2383L107.014 88.1877L107.225 88.2102L107.24 88.2721C106.66 88.2889 106.105 88.2721 105.594 88.2383ZM56.1342 95.2412C57.2835 93.9531 58.3395 92.6932 59.3169 91.4613C61.5271 91.6695 63.5409 90.7639 65.6824 89.8076C69.0075 88.3114 72.6569 86.6746 77.4752 89.9764C81.6255 92.8226 85.1373 91.0395 88.8014 89.1833C92.5686 87.2765 96.5225 85.2797 101.419 89.532C102.372 90.3645 105.128 90.9045 108.001 90.7245L109.342 95.0331C108.541 95.2131 107.711 95.3312 106.891 95.3818C104.474 95.5337 102.308 95.2131 101.694 94.6787C95.8054 89.5602 91.2523 91.8607 86.9202 94.06C83.7817 95.6462 80.7758 97.1705 77.5685 94.9712C71.8563 91.0564 67.6814 92.9294 63.8798 94.6394C61.2177 95.8318 58.7717 96.9287 56.1342 95.2412Z" fill="#00AFEF"/>
</svg>
